<svg xmlns="http://www.w3.org/2000/svg" width="222" height="225" viewBox="0 0 222 225">
  <style>text { font-family: monospace; font-size: 8px; fill: #d4d4d4; }</style>
  <text x="102" y="9">*</text>
  <text x="108" y="9">q</text>
  <text x="114" y="9">w</text>
  <text x="90" y="18">0</text>
  <text x="96" y="18">|</text>
  <text x="102" y="18">l</text>
  <text x="108" y="18">;</text>
  <text x="114" y="18">&quot;</text>
  <text x="120" y="18">^</text>
  <text x="126" y="18">-</text>
  <text x="132" y="18">m</text>
  <text x="84" y="27">Z</text>
  <text x="90" y="27">i</text>
  <text x="96" y="27">:</text>
  <text x="102" y="27">^</text>
  <text x="108" y="27">^</text>
  <text x="114" y="27">_</text>
  <text x="120" y="27">.</text>
  <text x="126" y="27">.</text>
  <text x="132" y="27">&quot;</text>
  <text x="138" y="27">v</text>
  <text x="168" y="27">%</text>
  <text x="174" y="27">#</text>
  <text x="180" y="27">#</text>
  <text x="186" y="27">#</text>
  <text x="192" y="27">#</text>
  <text x="198" y="27">#</text>
  <text x="204" y="27">#</text>
  <text x="210" y="27">#</text>
  <text x="216" y="27">#</text>
  <text x="0" y="36">@</text>
  <text x="6" y="36">@</text>
  <text x="12" y="36">@</text>
  <text x="18" y="36">@</text>
  <text x="24" y="36">@</text>
  <text x="30" y="36">@</text>
  <text x="36" y="36">@</text>
  <text x="42" y="36">@</text>
  <text x="48" y="36">@</text>
  <text x="54" y="36">@</text>
  <text x="60" y="36">@</text>
  <text x="66" y="36">@</text>
  <text x="72" y="36">@</text>
  <text x="78" y="36">q</text>
  <text x="84" y="36">[</text>
  <text x="90" y="36">+</text>
  <text x="96" y="36">~</text>
  <text x="102" y="36">l</text>
  <text x="108" y="36">!</text>
  <text x="114" y="36">;</text>
  <text x="120" y="36">I</text>
  <text x="126" y="36">)</text>
  <text x="132" y="36">_</text>
  <text x="138" y="36">x</text>
  <text x="144" y="36">0</text>
  <text x="150" y="36">@</text>
  <text x="156" y="36">@</text>
  <text x="162" y="36">@</text>
  <text x="168" y="36">@</text>
  <text x="174" y="36">@</text>
  <text x="180" y="36">@</text>
  <text x="186" y="36">@</text>
  <text x="192" y="36">@</text>
  <text x="198" y="36">@</text>
  <text x="204" y="36">@</text>
  <text x="210" y="36">@</text>
  <text x="216" y="36">@</text>
  <text x="0" y="45">@</text>
  <text x="6" y="45">@</text>
  <text x="12" y="45">@</text>
  <text x="18" y="45">@</text>
  <text x="24" y="45">@</text>
  <text x="30" y="45">@</text>
  <text x="36" y="45">@</text>
  <text x="42" y="45">#</text>
  <text x="48" y="45">@</text>
  <text x="54" y="45">@</text>
  <text x="60" y="45">@</text>
  <text x="66" y="45">@</text>
  <text x="72" y="45">#</text>
  <text x="78" y="45">&gt;</text>
  <text x="84" y="45">.</text>
  <text x="90" y="45">.</text>
  <text x="96" y="45">^</text>
  <text x="102" y="45">:</text>
  <text x="114" y="45">!</text>
  <text x="120" y="45">:</text>
  <text x="126" y="45">l</text>
  <text x="132" y="45">`</text>
  <text x="138" y="45">!</text>
  <text x="144" y="45">+</text>
  <text x="150" y="45">W</text>
  <text x="156" y="45">@</text>
  <text x="162" y="45">@</text>
  <text x="168" y="45">@</text>
  <text x="174" y="45">@</text>
  <text x="180" y="45">@</text>
  <text x="186" y="45">@</text>
  <text x="192" y="45">@</text>
  <text x="198" y="45">@</text>
  <text x="204" y="45">@</text>
  <text x="210" y="45">@</text>
  <text x="216" y="45">@</text>
  <text x="0" y="54">@</text>
  <text x="6" y="54">@</text>
  <text x="12" y="54">@</text>
  <text x="18" y="54">@</text>
  <text x="24" y="54">@</text>
  <text x="30" y="54">@</text>
  <text x="36" y="54">@</text>
  <text x="42" y="54">#</text>
  <text x="48" y="54">@</text>
  <text x="54" y="54">@</text>
  <text x="60" y="54">@</text>
  <text x="66" y="54">@</text>
  <text x="72" y="54">O</text>
  <text x="78" y="54">.</text>
  <text x="84" y="54">.</text>
  <text x="90" y="54">l</text>
  <text x="96" y="54">i</text>
  <text x="102" y="54">i</text>
  <text x="108" y="54">v</text>
  <text x="114" y="54">+</text>
  <text x="120" y="54">&gt;</text>
  <text x="126" y="54">.</text>
  <text x="132" y="54">`</text>
  <text x="138" y="54">&quot;</text>
  <text x="144" y="54">^</text>
  <text x="150" y="54">0</text>
  <text x="156" y="54">$</text>
  <text x="162" y="54">@</text>
  <text x="168" y="54">@</text>
  <text x="174" y="54">@</text>
  <text x="180" y="54">@</text>
  <text x="186" y="54">@</text>
  <text x="192" y="54">@</text>
  <text x="198" y="54">@</text>
  <text x="204" y="54">@</text>
  <text x="210" y="54">@</text>
  <text x="216" y="54">@</text>
  <text x="0" y="63">@</text>
  <text x="6" y="63">@</text>
  <text x="12" y="63">@</text>
  <text x="18" y="63">@</text>
  <text x="24" y="63">@</text>
  <text x="30" y="63">@</text>
  <text x="36" y="63">@</text>
  <text x="42" y="63">@</text>
  <text x="48" y="63">@</text>
  <text x="54" y="63">@</text>
  <text x="60" y="63">@</text>
  <text x="66" y="63">@</text>
  <text x="72" y="63">Z</text>
  <text x="78" y="63">+</text>
  <text x="84" y="63">?</text>
  <text x="90" y="63">}</text>
  <text x="96" y="63">n</text>
  <text x="102" y="63">/</text>
  <text x="108" y="63">X</text>
  <text x="114" y="63">f</text>
  <text x="120" y="63">}</text>
  <text x="126" y="63">+</text>
  <text x="132" y="63">:</text>
  <text x="138" y="63">;</text>
  <text x="144" y="63">+</text>
  <text x="150" y="63">)</text>
  <text x="156" y="63">8</text>
  <text x="162" y="63">@</text>
  <text x="168" y="63">@</text>
  <text x="174" y="63">@</text>
  <text x="180" y="63">@</text>
  <text x="186" y="63">@</text>
  <text x="192" y="63">@</text>
  <text x="198" y="63">@</text>
  <text x="204" y="63">@</text>
  <text x="210" y="63">@</text>
  <text x="216" y="63">@</text>
  <text x="0" y="72">#</text>
  <text x="6" y="72">@</text>
  <text x="12" y="72">@</text>
  <text x="18" y="72">%</text>
  <text x="24" y="72">@</text>
  <text x="30" y="72">@</text>
  <text x="36" y="72">@</text>
  <text x="42" y="72">@</text>
  <text x="48" y="72">@</text>
  <text x="54" y="72">@</text>
  <text x="60" y="72">@</text>
  <text x="66" y="72">@</text>
  <text x="72" y="72">w</text>
  <text x="78" y="72">-</text>
  <text x="84" y="72">c</text>
  <text x="90" y="72">c</text>
  <text x="96" y="72">x</text>
  <text x="102" y="72">L</text>
  <text x="114" y="72">Z</text>
  <text x="120" y="72">u</text>
  <text x="126" y="72">r</text>
  <text x="132" y="72">&lt;</text>
  <text x="138" y="72">&lt;</text>
  <text x="144" y="72">1</text>
  <text x="150" y="72">/</text>
  <text x="156" y="72">@</text>
  <text x="162" y="72">@</text>
  <text x="168" y="72">@</text>
  <text x="174" y="72">@</text>
  <text x="180" y="72">@</text>
  <text x="186" y="72">@</text>
  <text x="192" y="72">@</text>
  <text x="198" y="72">@</text>
  <text x="204" y="72">@</text>
  <text x="210" y="72">@</text>
  <text x="216" y="72">@</text>
  <text x="6" y="81">%</text>
  <text x="12" y="81">@</text>
  <text x="18" y="81">@</text>
  <text x="24" y="81">@</text>
  <text x="30" y="81">@</text>
  <text x="36" y="81">@</text>
  <text x="42" y="81">@</text>
  <text x="48" y="81">@</text>
  <text x="54" y="81">@</text>
  <text x="60" y="81">@</text>
  <text x="66" y="81">$</text>
  <text x="72" y="81">k</text>
  <text x="78" y="81">?</text>
  <text x="84" y="81">{</text>
  <text x="108" y="81">m</text>
  <text x="126" y="81">X</text>
  <text x="132" y="81">|</text>
  <text x="138" y="81">I</text>
  <text x="144" y="81">z</text>
  <text x="150" y="81">w</text>
  <text x="156" y="81">@</text>
  <text x="162" y="81">@</text>
  <text x="168" y="81">@</text>
  <text x="174" y="81">@</text>
  <text x="180" y="81">@</text>
  <text x="186" y="81">@</text>
  <text x="192" y="81">@</text>
  <text x="198" y="81">@</text>
  <text x="204" y="81">@</text>
  <text x="210" y="81">@</text>
  <text x="216" y="81">@</text>
  <text x="12" y="90">#</text>
  <text x="18" y="90">@</text>
  <text x="24" y="90">@</text>
  <text x="30" y="90">@</text>
  <text x="36" y="90">@</text>
  <text x="42" y="90">@</text>
  <text x="48" y="90">@</text>
  <text x="54" y="90">@</text>
  <text x="60" y="90">@</text>
  <text x="66" y="90">@</text>
  <text x="72" y="90">B</text>
  <text x="78" y="90">&lt;</text>
  <text x="84" y="90">.</text>
  <text x="90" y="90">J</text>
  <text x="120" y="90">Y</text>
  <text x="126" y="90">r</text>
  <text x="132" y="90">l</text>
  <text x="138" y="90">&lt;</text>
  <text x="144" y="90">{</text>
  <text x="150" y="90">m</text>
  <text x="156" y="90">b</text>
  <text x="162" y="90">@</text>
  <text x="168" y="90">@</text>
  <text x="174" y="90">@</text>
  <text x="180" y="90">@</text>
  <text x="186" y="90">@</text>
  <text x="192" y="90">@</text>
  <text x="198" y="90">@</text>
  <text x="204" y="90">@</text>
  <text x="210" y="90">@</text>
  <text x="216" y="90">@</text>
  <text x="12" y="99">&amp;</text>
  <text x="18" y="99">@</text>
  <text x="24" y="99">@</text>
  <text x="30" y="99">@</text>
  <text x="36" y="99">@</text>
  <text x="42" y="99">@</text>
  <text x="48" y="99">@</text>
  <text x="54" y="99">@</text>
  <text x="60" y="99">@</text>
  <text x="66" y="99">%</text>
  <text x="72" y="99">d</text>
  <text x="78" y="99">r</text>
  <text x="84" y="99">&quot;</text>
  <text x="90" y="99">:</text>
  <text x="96" y="99">|</text>
  <text x="102" y="99">0</text>
  <text x="108" y="99">L</text>
  <text x="114" y="99">J</text>
  <text x="120" y="99">z</text>
  <text x="126" y="99">~</text>
  <text x="132" y="99">+</text>
  <text x="138" y="99">t</text>
  <text x="144" y="99">m</text>
  <text x="150" y="99">L</text>
  <text x="156" y="99">&amp;</text>
  <text x="162" y="99">@</text>
  <text x="168" y="99">@</text>
  <text x="174" y="99">@</text>
  <text x="180" y="99">@</text>
  <text x="186" y="99">@</text>
  <text x="192" y="99">@</text>
  <text x="198" y="99">@</text>
  <text x="204" y="99">@</text>
  <text x="210" y="99">@</text>
  <text x="216" y="99">@</text>
  <text x="12" y="108">&amp;</text>
  <text x="18" y="108">@</text>
  <text x="24" y="108">@</text>
  <text x="30" y="108">@</text>
  <text x="36" y="108">@</text>
  <text x="42" y="108">@</text>
  <text x="48" y="108">@</text>
  <text x="54" y="108">@</text>
  <text x="60" y="108">*</text>
  <text x="66" y="108">0</text>
  <text x="72" y="108">M</text>
  <text x="78" y="108">/</text>
  <text x="84" y="108">I</text>
  <text x="90" y="108">I</text>
  <text x="96" y="108">-</text>
  <text x="102" y="108">C</text>
  <text x="114" y="108">Z</text>
  <text x="120" y="108">(</text>
  <text x="126" y="108">[</text>
  <text x="132" y="108">c</text>
  <text x="150" y="108">O</text>
  <text x="156" y="108">Z</text>
  <text x="162" y="108">W</text>
  <text x="168" y="108">@</text>
  <text x="174" y="108">@</text>
  <text x="180" y="108">@</text>
  <text x="186" y="108">@</text>
  <text x="192" y="108">@</text>
  <text x="198" y="108">@</text>
  <text x="204" y="108">@</text>
  <text x="210" y="108">@</text>
  <text x="216" y="108">@</text>
  <text x="18" y="117">@</text>
  <text x="24" y="117">@</text>
  <text x="30" y="117">@</text>
  <text x="36" y="117">@</text>
  <text x="42" y="117">@</text>
  <text x="48" y="117">o</text>
  <text x="54" y="117">d</text>
  <text x="72" y="117">v</text>
  <text x="78" y="117">r</text>
  <text x="84" y="117">}</text>
  <text x="90" y="117">!</text>
  <text x="96" y="117">[</text>
  <text x="102" y="117">0</text>
  <text x="120" y="117">U</text>
  <text x="126" y="117">t</text>
  <text x="150" y="117">L</text>
  <text x="162" y="117">k</text>
  <text x="168" y="117">k</text>
  <text x="174" y="117">W</text>
  <text x="180" y="117">@</text>
  <text x="186" y="117">@</text>
  <text x="192" y="117">@</text>
  <text x="198" y="117">@</text>
  <text x="204" y="117">@</text>
  <text x="210" y="117">@</text>
  <text x="216" y="117">@</text>
  <text x="12" y="126">#</text>
  <text x="18" y="126">@</text>
  <text x="24" y="126">@</text>
  <text x="30" y="126">@</text>
  <text x="36" y="126">@</text>
  <text x="42" y="126">B</text>
  <text x="48" y="126">w</text>
  <text x="66" y="126">O</text>
  <text x="72" y="126">j</text>
  <text x="84" y="126">Q</text>
  <text x="90" y="126">C</text>
  <text x="102" y="126">O</text>
  <text x="108" y="126">Z</text>
  <text x="120" y="126">J</text>
  <text x="126" y="126">U</text>
  <text x="150" y="126">Z</text>
  <text x="156" y="126">C</text>
  <text x="174" y="126">L</text>
  <text x="180" y="126">@</text>
  <text x="186" y="126">@</text>
  <text x="192" y="126">@</text>
  <text x="198" y="126">@</text>
  <text x="204" y="126">@</text>
  <text x="210" y="126">@</text>
  <text x="216" y="126">@</text>
  <text x="0" y="135">#</text>
  <text x="6" y="135">@</text>
  <text x="12" y="135">@</text>
  <text x="18" y="135">@</text>
  <text x="24" y="135">@</text>
  <text x="30" y="135">@</text>
  <text x="36" y="135">@</text>
  <text x="42" y="135">q</text>
  <text x="54" y="135">Z</text>
  <text x="66" y="135">X</text>
  <text x="72" y="135">X</text>
  <text x="90" y="135">p</text>
  <text x="108" y="135">q</text>
  <text x="156" y="135">L</text>
  <text x="174" y="135">$</text>
  <text x="180" y="135">@</text>
  <text x="186" y="135">@</text>
  <text x="192" y="135">@</text>
  <text x="198" y="135">@</text>
  <text x="204" y="135">@</text>
  <text x="210" y="135">@</text>
  <text x="216" y="135">@</text>
  <text x="0" y="144">@</text>
  <text x="6" y="144">@</text>
  <text x="12" y="144">@</text>
  <text x="18" y="144">@</text>
  <text x="24" y="144">@</text>
  <text x="30" y="144">@</text>
  <text x="36" y="144">@</text>
  <text x="42" y="144">Q</text>
  <text x="60" y="144">q</text>
  <text x="66" y="144">z</text>
  <text x="78" y="144">Y</text>
  <text x="84" y="144">m</text>
  <text x="108" y="144">d</text>
  <text x="156" y="144">L</text>
  <text x="174" y="144">&amp;</text>
  <text x="180" y="144">@</text>
  <text x="186" y="144">@</text>
  <text x="192" y="144">@</text>
  <text x="198" y="144">@</text>
  <text x="204" y="144">@</text>
  <text x="210" y="144">@</text>
  <text x="216" y="144">@</text>
  <text x="0" y="153">@</text>
  <text x="6" y="153">@</text>
  <text x="12" y="153">@</text>
  <text x="18" y="153">@</text>
  <text x="24" y="153">@</text>
  <text x="30" y="153">@</text>
  <text x="36" y="153">o</text>
  <text x="42" y="153">w</text>
  <text x="60" y="153">Z</text>
  <text x="66" y="153">c</text>
  <text x="78" y="153">z</text>
  <text x="84" y="153">0</text>
  <text x="90" y="153">w</text>
  <text x="96" y="153">q</text>
  <text x="102" y="153">Z</text>
  <text x="108" y="153">O</text>
  <text x="114" y="153">Y</text>
  <text x="120" y="153">C</text>
  <text x="156" y="153">C</text>
  <text x="162" y="153">m</text>
  <text x="174" y="153">o</text>
  <text x="180" y="153">@</text>
  <text x="186" y="153">@</text>
  <text x="192" y="153">@</text>
  <text x="198" y="153">@</text>
  <text x="204" y="153">@</text>
  <text x="210" y="153">@</text>
  <text x="216" y="153">@</text>
  <text x="0" y="162">@</text>
  <text x="6" y="162">@</text>
  <text x="12" y="162">@</text>
  <text x="18" y="162">@</text>
  <text x="24" y="162">@</text>
  <text x="30" y="162">@</text>
  <text x="36" y="162">k</text>
  <text x="66" y="162">(</text>
  <text x="78" y="162">Y</text>
  <text x="84" y="162">Z</text>
  <text x="90" y="162">L</text>
  <text x="96" y="162">C</text>
  <text x="102" y="162">C</text>
  <text x="108" y="162">n</text>
  <text x="114" y="162">v</text>
  <text x="120" y="162">v</text>
  <text x="156" y="162">m</text>
  <text x="174" y="162">8</text>
  <text x="180" y="162">@</text>
  <text x="186" y="162">@</text>
  <text x="192" y="162">@</text>
  <text x="198" y="162">@</text>
  <text x="204" y="162">@</text>
  <text x="210" y="162">@</text>
  <text x="216" y="162">@</text>
  <text x="0" y="171">@</text>
  <text x="6" y="171">@</text>
  <text x="12" y="171">@</text>
  <text x="18" y="171">@</text>
  <text x="24" y="171">@</text>
  <text x="30" y="171">@</text>
  <text x="36" y="171">p</text>
  <text x="66" y="171">/</text>
  <text x="78" y="171">0</text>
  <text x="84" y="171">U</text>
  <text x="90" y="171">Q</text>
  <text x="96" y="171">C</text>
  <text x="102" y="171">L</text>
  <text x="108" y="171">c</text>
  <text x="114" y="171">c</text>
  <text x="120" y="171">Q</text>
  <text x="162" y="171">m</text>
  <text x="168" y="171">d</text>
  <text x="174" y="171">&amp;</text>
  <text x="180" y="171">@</text>
  <text x="186" y="171">@</text>
  <text x="192" y="171">@</text>
  <text x="198" y="171">@</text>
  <text x="204" y="171">@</text>
  <text x="210" y="171">@</text>
  <text x="216" y="171">@</text>
  <text x="0" y="180">@</text>
  <text x="6" y="180">@</text>
  <text x="12" y="180">@</text>
  <text x="18" y="180">@</text>
  <text x="24" y="180">@</text>
  <text x="30" y="180">o</text>
  <text x="54" y="180">O</text>
  <text x="66" y="180">x</text>
  <text x="84" y="180">1</text>
  <text x="102" y="180">Q</text>
  <text x="120" y="180">C</text>
  <text x="126" y="180">w</text>
  <text x="150" y="180">0</text>
  <text x="162" y="180">Y</text>
  <text x="168" y="180">m</text>
  <text x="174" y="180">W</text>
  <text x="180" y="180">@</text>
  <text x="186" y="180">@</text>
  <text x="192" y="180">@</text>
  <text x="198" y="180">@</text>
  <text x="204" y="180">@</text>
  <text x="210" y="180">@</text>
  <text x="216" y="180">@</text>
  <text x="0" y="189">@</text>
  <text x="6" y="189">@</text>
  <text x="12" y="189">@</text>
  <text x="18" y="189">@</text>
  <text x="24" y="189">%</text>
  <text x="36" y="189">a</text>
  <text x="60" y="189">f</text>
  <text x="66" y="189">/</text>
  <text x="84" y="189">_</text>
  <text x="90" y="189">U</text>
  <text x="96" y="189">X</text>
  <text x="114" y="189">Z</text>
  <text x="120" y="189">j</text>
  <text x="126" y="189">X</text>
  <text x="150" y="189">Q</text>
  <text x="156" y="189">0</text>
  <text x="162" y="189">v</text>
  <text x="168" y="189">8</text>
  <text x="174" y="189">m</text>
  <text x="180" y="189">@</text>
  <text x="186" y="189">@</text>
  <text x="192" y="189">@</text>
  <text x="198" y="189">@</text>
  <text x="204" y="189">@</text>
  <text x="210" y="189">@</text>
  <text x="216" y="189">@</text>
  <text x="0" y="198">@</text>
  <text x="6" y="198">@</text>
  <text x="12" y="198">@</text>
  <text x="18" y="198">@</text>
  <text x="24" y="198">a</text>
  <text x="30" y="198">m</text>
  <text x="36" y="198">Z</text>
  <text x="42" y="198">u</text>
  <text x="48" y="198">&gt;</text>
  <text x="54" y="198">!</text>
  <text x="60" y="198">I</text>
  <text x="66" y="198">I</text>
  <text x="72" y="198">;</text>
  <text x="78" y="198">:</text>
  <text x="84" y="198">;</text>
  <text x="90" y="198">;</text>
  <text x="96" y="198">;</text>
  <text x="102" y="198">I</text>
  <text x="108" y="198">I</text>
  <text x="114" y="198">l</text>
  <text x="120" y="198">l</text>
  <text x="126" y="198">;</text>
  <text x="132" y="198">,</text>
  <text x="138" y="198">&quot;</text>
  <text x="144" y="198">,</text>
  <text x="150" y="198">^</text>
  <text x="156" y="198">^</text>
  <text x="162" y="198">?</text>
  <text x="168" y="198">o</text>
  <text x="174" y="198">b</text>
  <text x="180" y="198">k</text>
  <text x="186" y="198">@</text>
  <text x="192" y="198">@</text>
  <text x="198" y="198">@</text>
  <text x="204" y="198">@</text>
  <text x="210" y="198">@</text>
  <text x="216" y="198">@</text>
  <text x="0" y="207">%</text>
  <text x="6" y="207">8</text>
  <text x="12" y="207">W</text>
  <text x="18" y="207">8</text>
  <text x="24" y="207">W</text>
  <text x="42" y="207">Y</text>
  <text x="48" y="207">:</text>
  <text x="54" y="207">.</text>
  <text x="132" y="207">.</text>
  <text x="138" y="207">.</text>
  <text x="144" y="207">`</text>
  <text x="150" y="207">^</text>
  <text x="156" y="207">&quot;</text>
  <text x="162" y="207">/</text>
  <text x="168" y="207">Z</text>
  <text x="174" y="207">0</text>
  <text x="180" y="207">#</text>
  <text x="186" y="207">@</text>
  <text x="192" y="207">@</text>
  <text x="198" y="207">#</text>
  <text x="204" y="207">*</text>
  <text x="210" y="207">a</text>
  <text x="216" y="207">h</text>
  <text x="24" y="216">Z</text>
  <text x="30" y="216">p</text>
  <text x="48" y="216">l</text>
  <text x="54" y="216">.</text>
  <text x="120" y="216">.</text>
  <text x="126" y="216">`</text>
  <text x="132" y="216">&quot;</text>
  <text x="138" y="216">,</text>
  <text x="144" y="216">;</text>
  <text x="150" y="216">l</text>
  <text x="156" y="216">]</text>
  <text x="162" y="216">U</text>
  <text x="168" y="216">m</text>
  <text x="174" y="216">$</text>
  <text x="180" y="216">Z</text>
  <text x="186" y="216">b</text>
  <text x="192" y="216">w</text>
  <text x="198" y="216">Z</text>
  <text x="204" y="216">M</text>
  <text x="30" y="225">Z</text>
  <text x="36" y="225">z</text>
  <text x="48" y="225">+</text>
  <text x="54" y="225">.</text>
  <text x="78" y="225">.</text>
  <text x="84" y="225">.</text>
  <text x="90" y="225">.</text>
  <text x="96" y="225">.</text>
  <text x="102" y="225">`</text>
  <text x="108" y="225">^</text>
  <text x="114" y="225">,</text>
  <text x="120" y="225">:</text>
  <text x="126" y="225">l</text>
  <text x="132" y="225">&gt;</text>
  <text x="138" y="225">}</text>
  <text x="144" y="225">x</text>
  <text x="150" y="225">C</text>
  <text x="156" y="225">z</text>
  <text x="162" y="225">C</text>
  <text x="168" y="225">Z</text>
  <text x="174" y="225">C</text>
  <text x="180" y="225">u</text>
  <text x="186" y="225">m</text>
</svg>