<svg xmlns="http://www.w3.org/2000/svg" width="396" height="297" viewBox="0 0 396 297">
  <style>text { font-family: monospace; font-size: 8px; fill: #d4d4d4; }</style>
  <text x="174" y="36">Y</text>
  <text x="180" y="36">U</text>
  <text x="186" y="36">J</text>
  <text x="192" y="36">L</text>
  <text x="198" y="36">L</text>
  <text x="204" y="36">L</text>
  <text x="210" y="36">L</text>
  <text x="216" y="36">J</text>
  <text x="222" y="36">L</text>
  <text x="174" y="45">L</text>
  <text x="180" y="45">,</text>
  <text x="186" y="45">n</text>
  <text x="192" y="45">z</text>
  <text x="198" y="45">z</text>
  <text x="204" y="45">c</text>
  <text x="210" y="45">f</text>
  <text x="216" y="45">:</text>
  <text x="222" y="45">p</text>
  <text x="156" y="54">b</text>
  <text x="180" y="54">v</text>
  <text x="186" y="54">1</text>
  <text x="210" y="54">]</text>
  <text x="216" y="54">Q</text>
  <text x="156" y="63">v</text>
  <text x="162" y="63">!</text>
  <text x="168" y="63">U</text>
  <text x="180" y="63">o</text>
  <text x="186" y="63">,</text>
  <text x="192" y="63">x</text>
  <text x="198" y="63">z</text>
  <text x="204" y="63">r</text>
  <text x="210" y="63">l</text>
  <text x="228" y="63">c</text>
  <text x="234" y="63">;</text>
  <text x="240" y="63">w</text>
  <text x="156" y="72">c</text>
  <text x="162" y="72">{</text>
  <text x="168" y="72">|</text>
  <text x="174" y="72">+</text>
  <text x="180" y="72">l</text>
  <text x="186" y="72">j</text>
  <text x="210" y="72">?</text>
  <text x="216" y="72">+</text>
  <text x="222" y="72">]</text>
  <text x="228" y="72">x</text>
  <text x="234" y="72">[</text>
  <text x="240" y="72">k</text>
  <text x="156" y="81">z</text>
  <text x="162" y="81">|</text>
  <text x="180" y="81">x</text>
  <text x="210" y="81">Y</text>
  <text x="216" y="81">0</text>
  <text x="234" y="81">{</text>
  <text x="240" y="81">h</text>
  <text x="156" y="90">c</text>
  <text x="162" y="90">|</text>
  <text x="168" y="90">Z</text>
  <text x="174" y="90">j</text>
  <text x="180" y="90">]</text>
  <text x="186" y="90">_</text>
  <text x="192" y="90">q</text>
  <text x="204" y="90">L</text>
  <text x="210" y="90">l</text>
  <text x="216" y="90">[</text>
  <text x="222" y="90">)</text>
  <text x="228" y="90">Q</text>
  <text x="234" y="90">}</text>
  <text x="240" y="90">h</text>
  <text x="156" y="99">v</text>
  <text x="162" y="99">?</text>
  <text x="168" y="99">0</text>
  <text x="186" y="99">:</text>
  <text x="192" y="99">L</text>
  <text x="198" y="99">L</text>
  <text x="204" y="99">/</text>
  <text x="210" y="99">_</text>
  <text x="228" y="99">Y</text>
  <text x="234" y="99">i</text>
  <text x="240" y="99">b</text>
  <text x="180" y="108">t</text>
  <text x="186" y="108">{</text>
  <text x="210" y="108">;</text>
  <text x="216" y="108">L</text>
  <text x="174" y="117">|</text>
  <text x="180" y="117">i</text>
  <text x="186" y="117">z</text>
  <text x="192" y="117">n</text>
  <text x="198" y="117">r</text>
  <text x="204" y="117">u</text>
  <text x="210" y="117">x</text>
  <text x="216" y="117">;</text>
  <text x="222" y="117">L</text>
  <text x="162" y="126">z</text>
  <text x="168" y="126">~</text>
  <text x="174" y="126">]</text>
  <text x="180" y="126">&lt;</text>
  <text x="186" y="126">)</text>
  <text x="192" y="126">m</text>
  <text x="198" y="126">Z</text>
  <text x="204" y="126">C</text>
  <text x="210" y="126">^</text>
  <text x="216" y="126">}</text>
  <text x="222" y="126">+</text>
  <text x="228" y="126">1</text>
  <text x="234" y="126">0</text>
  <text x="150" y="135">r</text>
  <text x="156" y="135">~</text>
  <text x="162" y="135">U</text>
  <text x="180" y="135">f</text>
  <text x="186" y="135">z</text>
  <text x="192" y="135">v</text>
  <text x="198" y="135">!</text>
  <text x="210" y="135">&quot;</text>
  <text x="216" y="135">h</text>
  <text x="234" y="135">n</text>
  <text x="240" y="135">~</text>
  <text x="246" y="135">J</text>
  <text x="144" y="144">&gt;</text>
  <text x="150" y="144">u</text>
  <text x="180" y="144">j</text>
  <text x="186" y="144">z</text>
  <text x="198" y="144">O</text>
  <text x="210" y="144">&quot;</text>
  <text x="216" y="144">h</text>
  <text x="246" y="144">1</text>
  <text x="252" y="144">[</text>
  <text x="132" y="153">b</text>
  <text x="138" y="153">I</text>
  <text x="144" y="153">Z</text>
  <text x="180" y="153">j</text>
  <text x="186" y="153">z</text>
  <text x="192" y="153">Q</text>
  <text x="198" y="153">(</text>
  <text x="210" y="153">&quot;</text>
  <text x="216" y="153">h</text>
  <text x="252" y="153">c</text>
  <text x="258" y="153">~</text>
  <text x="114" y="162">m</text>
  <text x="120" y="162">J</text>
  <text x="126" y="162">z</text>
  <text x="132" y="162">i</text>
  <text x="138" y="162">U</text>
  <text x="180" y="162">j</text>
  <text x="186" y="162">z</text>
  <text x="198" y="162">L</text>
  <text x="210" y="162">&quot;</text>
  <text x="216" y="162">h</text>
  <text x="258" y="162">f</text>
  <text x="264" y="162">-</text>
  <text x="270" y="162">z</text>
  <text x="276" y="162">C</text>
  <text x="282" y="162">m</text>
  <text x="72" y="171">Q</text>
  <text x="78" y="171">x</text>
  <text x="84" y="171">|</text>
  <text x="90" y="171">(</text>
  <text x="96" y="171">|</text>
  <text x="102" y="171">n</text>
  <text x="108" y="171">Y</text>
  <text x="114" y="171">L</text>
  <text x="120" y="171">Z</text>
  <text x="126" y="171">j</text>
  <text x="132" y="171">!</text>
  <text x="180" y="171">f</text>
  <text x="186" y="171">z</text>
  <text x="192" y="171">0</text>
  <text x="198" y="171">/</text>
  <text x="210" y="171">&quot;</text>
  <text x="216" y="171">h</text>
  <text x="264" y="171">,</text>
  <text x="270" y="171">v</text>
  <text x="276" y="171">Q</text>
  <text x="282" y="171">J</text>
  <text x="288" y="171">z</text>
  <text x="294" y="171">t</text>
  <text x="300" y="171">1</text>
  <text x="306" y="171">}</text>
  <text x="312" y="171">1</text>
  <text x="318" y="171">r</text>
  <text x="324" y="171">0</text>
  <text x="48" y="180">U</text>
  <text x="54" y="180">)</text>
  <text x="60" y="180">{</text>
  <text x="66" y="180">n</text>
  <text x="72" y="180">0</text>
  <text x="90" y="180">q</text>
  <text x="96" y="180">c</text>
  <text x="102" y="180">j</text>
  <text x="108" y="180">f</text>
  <text x="114" y="180">t</text>
  <text x="120" y="180">x</text>
  <text x="126" y="180">i</text>
  <text x="132" y="180">)</text>
  <text x="138" y="180">(</text>
  <text x="144" y="180">{</text>
  <text x="150" y="180">r</text>
  <text x="156" y="180">0</text>
  <text x="180" y="180">f</text>
  <text x="186" y="180">|</text>
  <text x="192" y="180">c</text>
  <text x="198" y="180">v</text>
  <text x="204" y="180">U</text>
  <text x="210" y="180">&quot;</text>
  <text x="216" y="180">k</text>
  <text x="234" y="180">b</text>
  <text x="240" y="180">J</text>
  <text x="246" y="180">t</text>
  <text x="252" y="180">{</text>
  <text x="258" y="180">/</text>
  <text x="264" y="180">[</text>
  <text x="270" y="180">_</text>
  <text x="276" y="180">f</text>
  <text x="282" y="180">(</text>
  <text x="288" y="180">|</text>
  <text x="294" y="180">t</text>
  <text x="300" y="180">X</text>
  <text x="318" y="180">b</text>
  <text x="324" y="180">J</text>
  <text x="330" y="180">t</text>
  <text x="336" y="180">?</text>
  <text x="342" y="180">(</text>
  <text x="348" y="180">L</text>
  <text x="36" y="189">|</text>
  <text x="42" y="189">-</text>
  <text x="48" y="189">J</text>
  <text x="72" y="189">q</text>
  <text x="78" y="189">|</text>
  <text x="84" y="189">|</text>
  <text x="90" y="189">C</text>
  <text x="126" y="189">~</text>
  <text x="132" y="189">p</text>
  <text x="144" y="189">v</text>
  <text x="150" y="189">b</text>
  <text x="156" y="189">C</text>
  <text x="162" y="189">f</text>
  <text x="168" y="189">1</text>
  <text x="174" y="189">}</text>
  <text x="180" y="189">I</text>
  <text x="186" y="189">n</text>
  <text x="204" y="189">h</text>
  <text x="210" y="189">&lt;</text>
  <text x="216" y="189">_</text>
  <text x="222" y="189">1</text>
  <text x="228" y="189">|</text>
  <text x="234" y="189">u</text>
  <text x="240" y="189">O</text>
  <text x="246" y="189">k</text>
  <text x="252" y="189">C</text>
  <text x="264" y="189">L</text>
  <text x="270" y="189">/</text>
  <text x="300" y="189">p</text>
  <text x="306" y="189">n</text>
  <text x="312" y="189">?</text>
  <text x="318" y="189">x</text>
  <text x="348" y="189">v</text>
  <text x="354" y="189">+</text>
  <text x="360" y="189">j</text>
  <text x="30" y="198">I</text>
  <text x="36" y="198">C</text>
  <text x="66" y="198">n</text>
  <text x="72" y="198">1</text>
  <text x="126" y="198">~</text>
  <text x="132" y="198">n</text>
  <text x="138" y="198">Z</text>
  <text x="144" y="198">f</text>
  <text x="162" y="198">1</text>
  <text x="168" y="198">x</text>
  <text x="180" y="198">[</text>
  <text x="210" y="198">C</text>
  <text x="216" y="198">L</text>
  <text x="222" y="198">U</text>
  <text x="228" y="198">}</text>
  <text x="252" y="198">/</text>
  <text x="258" y="198">b</text>
  <text x="264" y="198">|</text>
  <text x="270" y="198">j</text>
  <text x="318" y="198">L</text>
  <text x="324" y="198">l</text>
  <text x="360" y="198">z</text>
  <text x="366" y="198">&lt;</text>
  <text x="24" y="207">U</text>
  <text x="30" y="207">~</text>
  <text x="66" y="207">_</text>
  <text x="72" y="207">U</text>
  <text x="126" y="207">|</text>
  <text x="132" y="207">_</text>
  <text x="138" y="207">t</text>
  <text x="144" y="207">{</text>
  <text x="150" y="207">)</text>
  <text x="156" y="207">u</text>
  <text x="162" y="207">u</text>
  <text x="168" y="207">m</text>
  <text x="180" y="207">f</text>
  <text x="186" y="207">Z</text>
  <text x="210" y="207">)</text>
  <text x="216" y="207">k</text>
  <text x="228" y="207">L</text>
  <text x="234" y="207">C</text>
  <text x="240" y="207">u</text>
  <text x="246" y="207">{</text>
  <text x="252" y="207">[</text>
  <text x="258" y="207">/</text>
  <text x="264" y="207">I</text>
  <text x="270" y="207">O</text>
  <text x="324" y="207">!</text>
  <text x="330" y="207">O</text>
  <text x="366" y="207">&gt;</text>
  <text x="372" y="207">m</text>
  <text x="30" y="216">1</text>
  <text x="36" y="216">|</text>
  <text x="72" y="216">(</text>
  <text x="78" y="216">?</text>
  <text x="84" y="216">z</text>
  <text x="126" y="216">d</text>
  <text x="132" y="216">i</text>
  <text x="162" y="216">Z</text>
  <text x="168" y="216">c</text>
  <text x="174" y="216">f</text>
  <text x="180" y="216">1</text>
  <text x="186" y="216">+</text>
  <text x="192" y="216">1</text>
  <text x="198" y="216">|</text>
  <text x="204" y="216">+</text>
  <text x="210" y="216">-</text>
  <text x="216" y="216">}</text>
  <text x="222" y="216">|</text>
  <text x="228" y="216">u</text>
  <text x="234" y="216">Q</text>
  <text x="258" y="216">d</text>
  <text x="264" y="216">&lt;</text>
  <text x="306" y="216">0</text>
  <text x="312" y="216">/</text>
  <text x="318" y="216">&lt;</text>
  <text x="324" y="216">X</text>
  <text x="360" y="216">)</text>
  <text x="366" y="216">/</text>
  <text x="36" y="225">w</text>
  <text x="42" y="225">)</text>
  <text x="48" y="225">[</text>
  <text x="54" y="225">v</text>
  <text x="60" y="225">p</text>
  <text x="84" y="225">O</text>
  <text x="90" y="225">j</text>
  <text x="96" y="225">[</text>
  <text x="102" y="225">]</text>
  <text x="108" y="225">)</text>
  <text x="114" y="225">x</text>
  <text x="120" y="225">Y</text>
  <text x="126" y="225">Z</text>
  <text x="132" y="225">{</text>
  <text x="138" y="225">{</text>
  <text x="258" y="225">&lt;</text>
  <text x="264" y="225">c</text>
  <text x="270" y="225">C</text>
  <text x="276" y="225">v</text>
  <text x="282" y="225">f</text>
  <text x="288" y="225">?</text>
  <text x="294" y="225">_</text>
  <text x="300" y="225">[</text>
  <text x="306" y="225">u</text>
  <text x="312" y="225">q</text>
  <text x="336" y="225">p</text>
  <text x="342" y="225">v</text>
  <text x="348" y="225">}</text>
  <text x="354" y="225">/</text>
  <text x="360" y="225">d</text>
  <text x="54" y="234">w</text>
  <text x="60" y="234">v</text>
  <text x="66" y="234">)</text>
  <text x="72" y="234">}</text>
  <text x="78" y="234">(</text>
  <text x="84" y="234">x</text>
  <text x="90" y="234">J</text>
  <text x="96" y="234">w</text>
  <text x="102" y="234">k</text>
  <text x="108" y="234">a</text>
  <text x="114" y="234">b</text>
  <text x="120" y="234">0</text>
  <text x="126" y="234">U</text>
  <text x="132" y="234">z</text>
  <text x="138" y="234">x</text>
  <text x="144" y="234">(</text>
  <text x="150" y="234">}</text>
  <text x="156" y="234">[</text>
  <text x="162" y="234">]</text>
  <text x="168" y="234">?</text>
  <text x="174" y="234">[</text>
  <text x="180" y="234">]</text>
  <text x="186" y="234">?</text>
  <text x="192" y="234">?</text>
  <text x="198" y="234">?</text>
  <text x="204" y="234">?</text>
  <text x="210" y="234">]</text>
  <text x="216" y="234">[</text>
  <text x="222" y="234">[</text>
  <text x="228" y="234">]</text>
  <text x="234" y="234">[</text>
  <text x="240" y="234">[</text>
  <text x="246" y="234">{</text>
  <text x="252" y="234">|</text>
  <text x="258" y="234">x</text>
  <text x="264" y="234">v</text>
  <text x="270" y="234">U</text>
  <text x="276" y="234">0</text>
  <text x="282" y="234">k</text>
  <text x="288" y="234">*</text>
  <text x="300" y="234">w</text>
  <text x="306" y="234">J</text>
  <text x="312" y="234">n</text>
  <text x="318" y="234">(</text>
  <text x="324" y="234">{</text>
  <text x="330" y="234">(</text>
  <text x="336" y="234">z</text>
  <text x="342" y="234">p</text>
  <text x="90" y="243">Q</text>
  <text x="96" y="243">X</text>
  <text x="102" y="243">j</text>
  <text x="108" y="243">)</text>
  <text x="114" y="243">{</text>
  <text x="120" y="243">]</text>
  <text x="126" y="243">?</text>
  <text x="132" y="243">{</text>
  <text x="138" y="243">)</text>
  <text x="144" y="243">/</text>
  <text x="150" y="243">j</text>
  <text x="156" y="243">n</text>
  <text x="162" y="243">c</text>
  <text x="168" y="243">U</text>
  <text x="174" y="243">C</text>
  <text x="180" y="243">L</text>
  <text x="186" y="243">Q</text>
  <text x="192" y="243">Q</text>
  <text x="198" y="243">0</text>
  <text x="204" y="243">0</text>
  <text x="210" y="243">Q</text>
  <text x="216" y="243">L</text>
  <text x="222" y="243">J</text>
  <text x="228" y="243">Y</text>
  <text x="234" y="243">v</text>
  <text x="240" y="243">x</text>
  <text x="246" y="243">f</text>
  <text x="252" y="243">|</text>
  <text x="258" y="243">)</text>
  <text x="264" y="243">}</text>
  <text x="270" y="243">?</text>
  <text x="276" y="243">?</text>
  <text x="282" y="243">}</text>
  <text x="288" y="243">1</text>
  <text x="294" y="243">j</text>
  <text x="300" y="243">X</text>
  <text x="306" y="243">0</text>
  <text x="156" y="252">0</text>
  <text x="162" y="252">?</text>
  <text x="168" y="252">~</text>
  <text x="174" y="252">f</text>
  <text x="180" y="252">Y</text>
  <text x="186" y="252">J</text>
  <text x="192" y="252">U</text>
  <text x="198" y="252">Y</text>
  <text x="204" y="252">Y</text>
  <text x="210" y="252">U</text>
  <text x="216" y="252">z</text>
  <text x="222" y="252">(</text>
  <text x="228" y="252">i</text>
  <text x="234" y="252">}</text>
  <text x="240" y="252">Z</text>
  <text x="246" y="252">h</text>
  <text x="174" y="261">0</text>
  <text x="180" y="261">n</text>
  <text x="186" y="261">u</text>
  <text x="192" y="261">c</text>
  <text x="198" y="261">c</text>
  <text x="204" y="261">v</text>
  <text x="210" y="261">u</text>
  <text x="216" y="261">c</text>
  <text x="222" y="261">m</text>
  <text x="366" y="279">M</text>
  <text x="372" y="279">W</text>
  <text x="378" y="279">M</text>
  <text x="384" y="279">*</text>
  <text x="390" y="279">*</text>
  <text x="366" y="288">k</text>
  <text x="372" y="288">h</text>
  <text x="378" y="288">b</text>
  <text x="384" y="288">o</text>
  <text x="390" y="288">o</text>
  <text x="372" y="297">k</text>
  <text x="378" y="297">*</text>
  <text x="384" y="297">o</text>
  <text x="390" y="297">h</text>
</svg>